<?xml version="1.0" encoding="UTF-8"?>
<svg version="1.1" xmlns="http://www.w3.org/2000/svg" width="16" height="16">
<path d="M0 0 C1.875 0.3828125 1.875 0.3828125 3.875 2.0078125 C5.15792178 5.05475172 5.28495912 7.10313951 4.875 10.3828125 C3.875 12.7578125 3.875 12.7578125 1.875 14.3828125 C-0.89927747 14.94922748 -3.35072253 14.94922748 -6.125 14.3828125 C-8.82915801 12.18568411 -9.06992745 10.82339289 -9.5 7.3828125 C-8.70841914 1.0501656 -6.03632475 -0.33288556 0 0 Z M-4.125 5.3828125 C-4.125 6.7028125 -4.125 8.0228125 -4.125 9.3828125 C-2.805 9.3828125 -1.485 9.3828125 -0.125 9.3828125 C-0.125 8.0628125 -0.125 6.7428125 -0.125 5.3828125 C-1.445 5.3828125 -2.765 5.3828125 -4.125 5.3828125 Z " fill="#0D0D0D" transform="translate(10.125,0.6171875)"/>
</svg>
